<?xml version="1.0" standalone="no"?><!DOCTYPE svg PUBLIC "-//W3C//DTD SVG 1.1//EN" "http://www.w3.org/Graphics/SVG/1.1/DTD/svg11.dtd">
<svg t="1703723422285" class="icon" viewBox="0 0 1024 1024" version="1.1" xmlns="http://www.w3.org/2000/svg" p-id="6354"
     width="200" height="200"><path d="M695.466667 951.466667h-298.666667c-12.8 0-21.333333-8.533333-21.333333-21.333334v-149.333333h-106.666667c-12.8 0-21.333333-8.533333-21.333333-21.333333v-151.466667l-85.333334-38.4c-10.666667-4.266667-14.933333-17.066667-10.666666-27.733333l53.333333-117.333334v-6.4c0-200.533333 149.333333-362.666667 330.666667-362.666666s330.666667 162.133333 330.666666 362.666666c0 123.733333-55.466667 236.8-149.333333 302.933334v209.066666c0 12.8-8.533333 21.333333-21.333333 21.333334z m-277.333334-42.666667h256v-198.4c0-6.4 2.133333-12.8 8.533334-17.066667l8.533333-6.4c83.2-59.733333 132.266667-160 132.266667-268.8 0-177.066667-130.133333-320-288-320s-288 142.933333-288 320v10.666667c0 2.133333 0 6.4-2.133334 8.533333l-46.933333 102.4 78.933333 36.266667c8.533333 4.266667 12.8 10.666667 12.8 19.2v142.933333h106.666667c12.8 0 21.333333 8.533333 21.333333 21.333334v149.333333z" fill="#3A3E46" p-id="6355"></path><path d="M588.8 505.6h-128v-57.6c-51.2-25.6-85.333333-76.8-85.333333-134.4 0-83.2 66.133333-149.333333 149.333333-149.333333s149.333333 66.133333 149.333333 149.333333c0 57.6-34.133333 110.933333-85.333333 134.4v57.6z m-85.333333-42.666667h42.666666v-40.533333l23.466667-10.666667c36.266667-17.066667 61.866667-55.466667 61.866667-96 0-59.733333-46.933333-106.666667-106.666667-106.666666s-106.666667 46.933333-106.666667 106.666666c0 40.533333 23.466667 78.933333 61.866667 96l23.466667 10.666667v40.533333z" fill="#FFB724" p-id="6356"></path><path d="M503.466667 281.6v-21.333333c0-6.4 4.266667-10.666667 10.666666-10.666667h21.333334c6.4 0 10.666667 4.266667 10.666666 10.666667v21.333333c0 6.4-4.266667 10.666667-10.666666 10.666667h-21.333334c-6.4 0-10.666667-4.266667-10.666666-10.666667z m53.333333 10.666667h21.333333c6.4 0 10.666667 4.266667 10.666667 10.666666v21.333334c0 6.4-4.266667 10.666667-10.666667 10.666666h-21.333333c-6.4 0-10.666667-4.266667-10.666667-10.666666v-21.333334c0-6.4 4.266667-10.666667 10.666667-10.666666z m-10.666667 53.333333v21.333333c0 6.4-4.266667 10.666667-10.666666 10.666667h-21.333334c-6.4 0-10.666667-4.266667-10.666666-10.666667v-21.333333c0-6.4 4.266667-10.666667 10.666666-10.666667h21.333334c6.4 0 10.666667 4.266667 10.666666 10.666667z m-53.333333-10.666667h-21.333333c-6.4 0-10.666667-4.266667-10.666667-10.666666v-21.333334c0-6.4 4.266667-10.666667 10.666667-10.666666h21.333333c6.4 0 10.666667 4.266667 10.666667 10.666666v21.333334c0 6.4-4.266667 10.666667-10.666667 10.666666z" fill="#FFB724" p-id="6357"></path><path d="M524.8 356.266667c-23.466667 0-42.666667-19.2-42.666667-42.666667s19.2-42.666667 42.666667-42.666667 42.666667 19.2 42.666667 42.666667-19.2 42.666667-42.666667 42.666667z m0-64c-12.8 0-21.333333 8.533333-21.333333 21.333333s8.533333 21.333333 21.333333 21.333333 21.333333-8.533333 21.333333-21.333333-8.533333-21.333333-21.333333-21.333333zM652.8 494.933333c-17.066667 0-32 14.933333-32 32v53.333334c0 23.466667-19.2 42.666667-42.666667 42.666666s-42.666667-19.2-42.666666-42.666666v-10.666667h10.666666c23.466667 0 42.666667-19.2 42.666667-42.666667v-64h-128v64c0 23.466667 19.2 42.666667 42.666667 42.666667h10.666666v10.666667c0 36.266667 27.733333 64 64 64s64-27.733333 64-64v-53.333334c0-6.4 4.266667-10.666667 10.666667-10.666666s10.666667 4.266667 10.666667 10.666666v42.666667c0 6.4 4.266667 10.666667 10.666666 10.666667s10.666667-4.266667 10.666667-10.666667v-42.666667c0-17.066667-14.933333-32-32-32z m-149.333333 10.666667h42.666666v21.333333h-42.666666v-21.333333z" fill="#3A3E46" p-id="6358"></path></svg>