<?xml version="1.0" standalone="no"?><!DOCTYPE svg PUBLIC "-//W3C//DTD SVG 1.1//EN" "http://www.w3.org/Graphics/SVG/1.1/DTD/svg11.dtd"><svg t="1704195095630" class="icon" viewBox="0 0 1137 1024" version="1.1" xmlns="http://www.w3.org/2000/svg" p-id="6459" xmlns:xlink="http://www.w3.org/1999/xlink" width="222.0703125" height="200"><path d="M806.968889 917.617778c0 22.755556-19.797333 41.301333-44.032 41.301333H374.499556c-24.291556 0-44.088889-18.545778-44.088889-41.301333v-72.817778c0-22.755556 19.797333-41.358222 44.088889-41.358222h388.437333c24.234667 0 44.032 18.602667 44.032 41.301333v72.874667z m-44.032-177.152H374.499556c-61.383111 0-111.274667 46.819556-111.274667 104.277333v72.874667c0 57.457778 49.891556 104.277333 111.274667 104.277333h388.266666c61.383111 0 111.388444-46.762667 111.388445-104.277333v-72.817778c0-57.514667-49.891556-104.334222-111.217778-104.334222zM568.775111 624.867556l-0.170667 0.113777-0.341333-0.113777L332.8 510.862222 568.32 396.913778l0.341333-0.113778 0.398223 0.113778 235.463111 113.891555-235.690667 114.062223z m271.473778-167.594667L599.608889 340.764444l-0.398222-0.227555a65.991111 65.991111 0 0 0-30.606223-6.997333c-7.566222 0-16.839111 0.568889-30.549333 6.997333l-240.64 116.451555a59.790222 59.790222 0 0 0-36.238222 53.76c0 22.983111 14.222222 43.975111 36.238222 53.816889l240.241778 116.224 0.398222 0.227556a56.718222 56.718222 0 0 0 30.549333 6.997333c8.931556 0 22.016 0 34.304-8.760889l237.340445-114.915555c22.072889-10.467556 35.84-30.947556 35.84-53.589334 0-22.584889-13.767111-43.064889-35.84-53.532444z" fill="#308DFC" p-id="6460"></path><path d="M685.056 844.8c-23.324444 0-38.855111 14.506667-38.855111 36.408889s15.530667 36.408889 38.855111 36.408889c23.381333 0 38.855111-14.620444 38.855111-36.408889 0-21.902222-15.473778-36.408889-38.855111-36.408889M330.410667 104.277333c0-22.755556 19.797333-41.301333 44.088889-41.301333h388.437333c24.234667 0 44.032 18.545778 44.032 41.301333v72.817778c0 22.755556-19.797333 41.358222-44.032 41.358222H374.499556c-24.291556 0-44.088889-18.545778-44.088889-41.301333v-72.817778z m44.088889 177.152h388.266666c61.383111 0 111.388444-46.762667 111.388445-104.277333v-72.817778C874.154667 46.705778 824.32 0 762.936889 0H374.499556C313.116444 0 263.224889 46.762667 263.224889 104.277333v72.817778c0 57.571556 49.891556 104.334222 111.274667 104.334222z" fill="#308DFC" p-id="6461"></path><path d="M452.039111 177.152c23.381333 0 38.912-14.563556 38.912-36.408889 0-21.959111-15.530667-36.408889-38.912-36.408889-23.324444 0-38.855111 14.449778-38.855111 36.408889 0 21.731556 15.644444 36.408889 38.855111 36.408889M240.526222 142.506667L134.371556 42.951111v67.128889H33.678222c-18.716444 0-33.678222 14.222222-33.678222 31.573333 0 1.251556 0.227556 2.389333 0.398222 3.584-0.170667 1.137778-0.398222 2.332444-0.398222 3.584V510.862222c0 17.464889 15.132444 31.516444 33.678222 31.516445h137.671111c18.602667 0 33.564444-14.051556 33.735111-31.516445 0-17.521778-15.132444-31.573333-33.678222-31.573333h-104.106666v-306.062222h67.072v68.835555l106.154666-99.555555zM1136.526222 510.862222c0-17.521778-15.132444-31.573333-33.678222-31.573333h-137.784889c-18.659556 0-33.621333 14.165333-33.621333 31.516444 0 17.521778 15.075556 31.573333 33.621333 31.573334h104.106667v306.176h-67.128889V779.946667l-106.154667 99.555555 106.154667 99.498667v-67.299556h100.807111c18.545778 0 33.678222-14.165333 33.678222-31.516444 0-1.194667-0.284444-2.389333-0.398222-3.527111 0.113778-1.137778 0.398222-2.275556 0.398222-3.527111V510.976 510.862222v-0.113778" fill="#308DFC" p-id="6462"></path></svg>