<?xml version="1.0" standalone="no"?><!DOCTYPE svg PUBLIC "-//W3C//DTD SVG 1.1//EN" "http://www.w3.org/Graphics/SVG/1.1/DTD/svg11.dtd">
<svg t="1703723506617" class="icon" viewBox="0 0 1024 1024" version="1.1" xmlns="http://www.w3.org/2000/svg"
     p-id="11436"
     width="200" height="200"><path d="M861.859 418.165c-16.48 0-31.989 4.155-45.54 11.471L689.413 314.492c9.381-17.799 14.699-38.073 14.699-59.591 0-70.692-57.308-128-128-128s-128 57.308-128 128c0 45.071 23.298 84.696 58.504 107.502l-81.771 245.745a129.121 129.121 0 0 0-8.765-0.306c-26.925 0-51.929 8.364-72.567 22.619l-94.502-82.047c4.296-10.897 6.655-22.769 6.655-35.191 0-53.019-42.981-96-96-96s-96 42.981-96 96 42.981 96 96 96c17.23 0 33.397-4.543 47.376-12.49l94.49 82.037c-8.601 17.193-13.452 36.576-13.452 57.073 0 70.579 57.42 128 128 128s128-57.421 128-128c0-44.984-23.329-84.618-58.52-107.452l81.787-245.795c2.897 0.196 5.818 0.305 8.764 0.305 25.961 0 50.112-7.736 70.287-21.019l126.91 115.148c-4.796 11.424-7.449 23.969-7.449 37.135 0 53.019 42.981 96 96 96s96-42.981 96-96-42.981-96-96-96zM416.081 799.843c-35.29 0-64-28.71-64-64s28.71-64 64-64 64 28.71 64 64-28.711 64-64 64z" fill="#13227a" p-id="11437"></path></svg>