<?xml version="1.0" standalone="no"?><!DOCTYPE svg PUBLIC "-//W3C//DTD SVG 1.1//EN" "http://www.w3.org/Graphics/SVG/1.1/DTD/svg11.dtd">
<svg t="1703723778550" class="icon" viewBox="0 0 1024 1024" version="1.1" xmlns="http://www.w3.org/2000/svg" p-id="4231"
     width="200" height="200"><path d="M550.4 495.7696l84.3264 48.6784L512 615.3216l-122.752-70.8736L473.6 495.7696a76.8 76.8 0 0 1 76.8 0z m-16.9216-202.688l123.4304 71.2576v142.1056l-85.0176-49.0752a76.8 76.8 0 0 1-38.4-66.5088v-97.7792z m-42.9696 0v84.9792a76.8 76.8 0 0 1-38.4 66.5088l-85.0304 49.0752 0.0128-129.3056 123.4176-71.2576z" fill="#FFBA00" p-id="4232"></path><path d="M733.696 645.9392v167.3216a76.8 76.8 0 0 1-38.4 66.5088L550.4 963.4304a76.8 76.8 0 0 1-76.8 0l-144.896-83.6608a76.8 76.8 0 0 1-38.4-66.5088V645.9392A76.8 76.8 0 0 1 323.968 582.4l2.3296 1.536 2.3808 1.4464L473.6 669.0304a76.8 76.8 0 0 0 73.8048 1.6384l2.9952-1.6384 144.896-83.6608c1.6256-0.9344 3.2-1.92 4.7232-2.944a76.6976 76.6976 0 0 1 33.6896 63.5136zM793.6 73.3696l144.896 83.6608a76.8 76.8 0 0 1 38.4 66.5088v167.3216a76.8 76.8 0 0 1-38.4 66.5088L793.6 541.0304a76.8 76.8 0 0 1-65.0752 5.504 76.2496 76.2496 0 0 0 5.0688-23.5648l0.1152-4.1088V351.5392a76.8 76.8 0 0 0-35.5968-64.8064l-2.816-1.7024L550.4 201.3696a76.8256 76.8256 0 0 0-11.7376-5.504 76.736 76.736 0 0 1 33.2288-38.8352L716.8 73.3696a76.8 76.8 0 0 1 76.8 0z m-486.4-12.8l144.896 83.6608a76.8 76.8 0 0 1 36.7104 50.432c-3.9296 1.2544-7.7824 2.816-11.52 4.7104l-3.6864 1.9968-144.896 83.6608a76.8 76.8 0 0 0-38.336 63.232l-0.0768 3.2768v167.3216c0 5.4656 0.5888 10.8416 1.7024 16.0768A76.8 76.8 0 0 1 230.4 528.2304L85.504 444.5696a76.8 76.8 0 0 1-38.4-66.5088V210.7392a76.8 76.8 0 0 1 38.4-66.5088L230.4 60.5696a76.8 76.8 0 0 1 76.8 0z" fill="#6B57FE" p-id="4233"></path></svg>